<?xml version="1.0" encoding="UTF-8"?><svg id="Layer_1" xmlns="http://www.w3.org/2000/svg" viewBox="0 0 720.1 183.39"><defs><style>*{background-color:white;}.cls-1{fill:none;}.cls-2{fill:#f68e2d;}.cls-3{fill:#fff;}.cls-4{fill:#ffc846;}.cls-5{fill:#ff5a5a;}.cls-6{fill:#1f0970;}.cls-7{fill:#397dc9;}</style></defs><g><rect class="cls-1" width="720.1" height="183.39"/><g><g><path class="cls-6" d="m202.95,55.69c11.71,0,18.44,5.76,18.44,15.96,0,10.73-6.74,16.94-18.44,16.94h-8.31v12.89h-11.64v-45.79h19.95Zm-8.31,23.74h7.72c5.1,0,8.05-2.55,8.05-7.39s-2.94-7.19-8.05-7.19h-7.72v14.59Z"/><path class="cls-6" d="m272.89,78.52c0,13.34-10.6,23.48-24.79,23.48s-24.72-10.07-24.72-23.48,10.6-23.22,24.72-23.22,24.79,9.94,24.79,23.22Zm-37.61.07c0,7.72,5.95,13.67,12.95,13.67s12.69-5.95,12.69-13.67-5.62-13.54-12.69-13.54-12.95,5.82-12.95,13.54Z"/><path class="cls-6" d="m309.15,91.73v9.75h-31.07v-45.79h11.64v36.04h19.43Z"/><path class="cls-6" d="m312.36,101.47v-45.79h11.64v45.79h-11.64Z"/><path class="cls-6" d="m372.07,63.01l-6.74,7.98c-3.01-3.66-7.46-5.95-11.51-5.95-7.26,0-12.75,5.76-12.75,13.28s5.49,13.47,12.75,13.47c3.86,0,8.31-2.09,11.51-5.36l6.8,7.19c-4.91,5.04-12.17,8.37-18.9,8.37-13.8,0-24.07-10.14-24.07-23.55s10.53-23.15,24.46-23.15c6.8,0,13.87,3.01,18.44,7.72Z"/><path class="cls-6" d="m399.71,101.47h-11.58v-14.46l-16.94-31.33h11.64l11.05,19.95,10.79-19.95h11.64l-16.61,31v14.78Z"/><path class="cls-6" d="m475.64,63.01l-6.74,7.98c-3.01-3.66-7.46-5.95-11.51-5.95-7.26,0-12.75,5.76-12.75,13.28s5.49,13.47,12.75,13.47c3.86,0,8.31-2.09,11.51-5.36l6.8,7.19c-4.91,5.04-12.17,8.37-18.9,8.37-13.8,0-24.07-10.14-24.07-23.55s10.53-23.15,24.46-23.15c6.8,0,13.87,3.01,18.44,7.72Z"/><path class="cls-6" d="m491.28,64.85v9.09h21.85v9.16h-21.85v9.22h24.92v9.16h-36.56v-45.79h35.84v9.16h-24.2Z"/><path class="cls-6" d="m554.74,101.47l-21.06-28.19v28.19h-10.92v-45.79h10.27l21.13,28.26v-28.26h10.86v45.79h-10.27Z"/><path class="cls-6" d="m593.37,65.04v36.43h-11.64v-36.43h-13.67v-9.42h39.11v9.42h-13.8Z"/><path class="cls-6" d="m621.79,64.85v9.09h21.85v9.16h-21.85v9.22h24.92v9.16h-36.56v-45.79h35.84v9.16h-24.2Z"/><path class="cls-6" d="m674.06,88.59h-9.16v12.89h-11.64v-45.79h20.47c12.1,0,19.03,5.76,19.03,15.96,0,7-2.94,12.04-8.31,14.72l9.61,15.11h-13.21l-6.8-12.89Zm-.33-9.16c5.04,0,7.98-2.55,7.98-7.39s-2.94-7.19-7.98-7.19h-8.83v14.59h8.83Z"/></g><g><path class="cls-6" d="m186.31,119.12v5.7h8.98v2.96h-8.98v8.1h-3.33v-19.77h13.27l-.03,2.99h-9.91Z"/><path class="cls-6" d="m218.44,126.01c0,5.65-4.57,10.03-10.48,10.03s-10.48-4.38-10.48-10.03,4.57-9.97,10.48-9.97,10.48,4.32,10.48,9.97Zm-17.56,0c0,3.93,3.25,7.03,7.12,7.03s7.03-3.11,7.03-7.03-3.16-6.98-7.03-6.98-7.12,3.05-7.12,6.98Z"/><path class="cls-6" d="m230.88,129.91c-.28.03-.59.03-.9.03h-4.69v5.96h-3.33v-19.77h8.02c5.05,0,7.96,2.46,7.96,6.75,0,3.16-1.47,5.39-4.09,6.41l4.43,6.61h-3.78l-3.61-5.99Zm-.9-2.96c3.05,0,4.8-1.3,4.8-3.98s-1.75-3.84-4.8-3.84h-4.69v7.82h4.69Z"/><path class="cls-6" d="m275.69,138.87l-.04-20.22-8.54,17.39h-2.98l-8.54-17.39v20.22h-4.29v-27.06h5.41l8.93,17.97,8.89-17.97h5.37v27.06h-4.21Z"/><path class="cls-6" d="m298.71,136.36c-1.47,1.82-3.83,2.71-6.8,2.71-4.45,0-7.23-2.74-7.23-6.38s2.82-6.15,7.77-6.18h6.22v-.62c0-2.59-1.66-4.14-4.91-4.14-1.97,0-4.02.7-6.07,2.09l-1.82-3.09c2.86-1.7,4.95-2.59,8.85-2.59,5.3,0,8.27,2.71,8.31,7.23l.04,13.49h-4.37v-2.51Zm-.04-4.72v-1.89h-5.57c-2.9,0-4.25.77-4.25,2.74,0,1.86,1.51,3.05,3.98,3.05,3.17,0,5.6-1.66,5.84-3.9Z"/><path class="cls-6" d="m319.87,137.55c-1.62.97-3.32,1.51-5.06,1.51-3.09,0-5.76-1.78-5.76-5.99v-10.67h-2.9v-3.32h2.9v-5.64h4.41v5.64h6.07v3.32h-6.07v9.86c0,2.13.81,2.78,2.2,2.78.93,0,1.89-.31,3.09-.89l1.12,3.4Z"/><path class="cls-6" d="m341.5,130.29h-15.54c.7,3.17,3.13,5.14,6.38,5.14,2.24,0,4.29-.85,5.8-2.4l2.36,2.51c-2.01,2.2-4.95,3.48-8.5,3.48-6.34,0-10.51-4.21-10.51-10.4s4.29-10.44,10.4-10.47c7.23,0,10.17,4.72,9.62,12.14Zm-3.87-3.25c-.15-3.32-2.36-5.33-5.72-5.33s-5.53,2.05-6.03,5.33h11.75Z"/><path class="cls-6" d="m350.25,122.4c1.39-2.78,3.87-4.25,7.11-4.25v4.25c-4.14-.23-6.76,2.2-7.11,5.72v10.75h-4.45v-20.56h4.45v4.1Z"/><path class="cls-6" d="m380.17,126.07v12.79h-4.45v-11.56c0-3.09-1.86-4.99-4.95-4.99-3.4.04-5.53,2.4-5.84,5.6v10.94h-4.45v-20.56h4.45v3.94c1.47-2.86,4.1-4.1,7.58-4.1,4.79,0,7.65,3.01,7.65,7.92Z"/><path class="cls-6" d="m398.12,136.36c-1.47,1.82-3.83,2.71-6.8,2.71-4.45,0-7.23-2.74-7.23-6.38s2.82-6.15,7.77-6.18h6.22v-.62c0-2.59-1.66-4.14-4.91-4.14-1.97,0-4.02.7-6.07,2.09l-1.82-3.09c2.86-1.7,4.95-2.59,8.85-2.59,5.3,0,8.27,2.71,8.31,7.23l.04,13.49h-4.37v-2.51Zm-.04-4.72v-1.89h-5.57c-2.9,0-4.25.77-4.25,2.74,0,1.86,1.51,3.05,3.98,3.05,3.17,0,5.6-1.66,5.84-3.9Z"/><path class="cls-6" d="m408.06,138.87v-28.68h4.45v28.68h-4.45Z"/><path class="cls-6" d="m454.83,138.87l-.04-20.22-8.54,17.39h-2.98l-8.54-17.39v20.22h-4.29v-27.06h5.41l8.93,17.97,8.89-17.97h5.37v27.06h-4.21Z"/><path class="cls-6" d="m483.8,130.29h-15.54c.7,3.17,3.13,5.14,6.38,5.14,2.24,0,4.29-.85,5.8-2.4l2.36,2.51c-2.01,2.2-4.95,3.48-8.5,3.48-6.34,0-10.51-4.21-10.51-10.4s4.29-10.44,10.4-10.47c7.23,0,10.17,4.72,9.62,12.14Zm-3.87-3.25c-.15-3.32-2.36-5.33-5.72-5.33s-5.53,2.05-6.03,5.33h11.75Z"/><path class="cls-6" d="m507.77,126.07v12.79h-4.45v-11.56c0-3.09-1.86-4.99-4.95-4.99-3.4.04-5.53,2.4-5.84,5.6v10.94h-4.45v-20.56h4.45v3.94c1.47-2.86,4.1-4.1,7.58-4.1,4.79,0,7.65,3.01,7.65,7.92Z"/><path class="cls-6" d="m524.55,137.55c-1.62.97-3.32,1.51-5.06,1.51-3.09,0-5.76-1.78-5.76-5.99v-10.67h-2.9v-3.32h2.9v-5.64h4.41v5.64h6.07v3.32h-6.07v9.86c0,2.13.81,2.78,2.2,2.78.93,0,1.89-.31,3.09-.89l1.12,3.4Z"/><path class="cls-6" d="m540.61,136.36c-1.47,1.82-3.83,2.71-6.8,2.71-4.45,0-7.23-2.74-7.23-6.38s2.82-6.15,7.77-6.18h6.22v-.62c0-2.59-1.66-4.14-4.91-4.14-1.97,0-4.02.7-6.07,2.09l-1.82-3.09c2.86-1.7,4.95-2.59,8.85-2.59,5.3,0,8.27,2.71,8.31,7.23l.04,13.49h-4.37v-2.51Zm-.04-4.72v-1.89h-5.57c-2.9,0-4.25.77-4.25,2.74,0,1.86,1.51,3.05,3.98,3.05,3.17,0,5.6-1.66,5.84-3.9Z"/><path class="cls-6" d="m550.55,138.87v-28.68h4.45v28.68h-4.45Z"/><path class="cls-6" d="m591.83,138.87v-11.21h-14.34v11.21h-4.56v-27.06h4.56v11.75h14.34v-11.75h4.56v27.06h-4.56Z"/><path class="cls-6" d="m621.11,130.29h-15.54c.7,3.17,3.13,5.14,6.38,5.14,2.24,0,4.29-.85,5.8-2.4l2.36,2.51c-2.01,2.2-4.95,3.48-8.5,3.48-6.34,0-10.51-4.21-10.51-10.4s4.29-10.44,10.4-10.47c7.23,0,10.17,4.72,9.62,12.14Zm-3.87-3.25c-.15-3.32-2.36-5.33-5.72-5.33s-5.53,2.05-6.03,5.33h11.75Z"/><path class="cls-6" d="m637.84,136.36c-1.47,1.82-3.83,2.71-6.8,2.71-4.45,0-7.23-2.74-7.23-6.38s2.82-6.15,7.77-6.18h6.22v-.62c0-2.59-1.66-4.14-4.91-4.14-1.97,0-4.02.7-6.07,2.09l-1.82-3.09c2.86-1.7,4.95-2.59,8.85-2.59,5.3,0,8.27,2.71,8.31,7.23l.04,13.49h-4.37v-2.51Zm-.04-4.72v-1.89h-5.57c-2.9,0-4.25.77-4.25,2.74,0,1.86,1.51,3.05,3.98,3.05,3.17,0,5.6-1.66,5.84-3.9Z"/><path class="cls-6" d="m647.77,138.87v-28.68h4.45v28.68h-4.45Z"/><path class="cls-6" d="m669.8,137.55c-1.62.97-3.32,1.51-5.06,1.51-3.09,0-5.76-1.78-5.76-5.99v-10.67h-2.9v-3.32h2.9v-5.64h4.41v5.64h6.07v3.32h-6.07v9.86c0,2.13.81,2.78,2.2,2.78.93,0,1.89-.31,3.09-.89l1.12,3.4Z"/><path class="cls-6" d="m693.23,126.07v12.79h-4.45v-11.56c0-3.09-1.86-4.99-4.95-4.99-3.67.04-5.88,2.78-5.88,6.42v10.13h-4.45v-28.68h4.45v12.14c1.47-2.9,4.1-4.17,7.61-4.17,4.79,0,7.65,3.01,7.65,7.92Z"/></g></g><path class="cls-6" d="m696.03,110.65v5.65h-1.39v-5.65h-1.99v-1.21h5.39v1.21h-2.01Zm9.07,5.65v-4.85l-1.98,4.15h-.92l-1.96-4.15v4.85h-1.27v-6.86h1.6l2.09,4.36,2.09-4.36h1.6v6.86h-1.26Z"/></g><g><g><path class="cls-3" d="m91.96,35.78c-30.97,0-56.16,25.09-56.16,55.94s25.2,55.94,56.16,55.94,56.16-25.09,56.16-55.94-25.2-55.94-56.16-55.94h0Z"/><path class="cls-3" d="m128.37,93.61c-19.01,0-34.48,15.41-34.48,34.35s15.47,34.35,34.48,34.35,34.48-15.41,34.48-34.35-15.47-34.35-34.48-34.35h0Z"/><path class="cls-3" d="m92.24,21.73h-5.64v37.99h5.64c17.58,0,31.89,14.23,31.89,31.72v5.64h5.64s26.84.01,26.84.01h5.64v-5.64c0-38.45-31.4-69.73-70-69.73h0Z"/><path class="cls-3" d="m55.55,21.12c-19.01,0-34.48,15.41-34.48,34.35s15.47,34.35,34.48,34.35,34.48-15.41,34.48-34.35-15.47-34.35-34.48-34.35h0Z"/><path class="cls-3" d="m60.07,86.08H21.95v5.64c0,38.44,31.4,69.71,70,69.71h5.64v-32.35l.02-5.91-5.64.28c-17.58,0-31.89-14.23-31.89-31.72v-5.64h0Z"/></g><g><ellipse class="cls-6" cx="91.96" cy="91.72" rx="50.53" ry="50.3"/><path class="cls-7" d="m129.77,91.45h26.84c0-35.34-28.88-64.09-64.37-64.09v26.72c20.69,0,37.53,16.76,37.53,37.36h0Z"/><path class="cls-2" d="m91.96,129.07c-20.69,0-37.53-16.76-37.53-37.36h-26.85c0,35.33,28.88,64.07,64.37,64.07h0v-26.72h.01Z"/><ellipse class="cls-4" cx="128.37" cy="127.97" rx="28.85" ry="28.72"/><ellipse class="cls-5" cx="55.55" cy="55.47" rx="28.85" ry="28.72"/></g></g></svg>